<?xml version="1.0" encoding="utf-8"?>
<!-- Generator: Adobe Illustrator 16.0.4, SVG Export Plug-In . SVG Version: 6.00 Build 0)  -->
<!DOCTYPE svg PUBLIC "-//W3C//DTD SVG 1.1//EN" "http://www.w3.org/Graphics/SVG/1.1/DTD/svg11.dtd">
<svg version="1.1" id="Calque_1" xmlns="http://www.w3.org/2000/svg" xmlns:xlink="http://www.w3.org/1999/xlink" x="0px" y="0px"
	 width="595.28px" height="841.89px" viewBox="0 0 595.28 841.89" enable-background="new 0 0 595.28 841.89" xml:space="preserve">
<g>
	<path fill="#5E72E3" d="M403.748,298.983l-4.061-4.062l-4.063,4.062l-17.02,17.024h-10.853
		c-3.742-11.834-14.847-20.248-27.637-20.248c-15.981,0-28.986,13.002-28.986,28.982c0,2.031,0.213,4.044,0.633,6.011
		l-14.135,14.136l-13.019-13.017l1.77-1.769l4.063-4.059l-4.063-4.064l-23.294-23.292l-4.058-4.06l-4.063,4.06l-17.321,17.319
		h-14.849v-9.637v-5.743h-5.745h-39.124h-5.743v5.743v39.126v5.743h5.743h39.124h5.745v-5.743v-8.91h15.358l16.812,16.812
		l4.063,4.059l4.058-4.059l6.972-6.974l13.02,13.014l-10.619,10.619c-4.302-2.412-9.189-3.709-14.171-3.709
		c-12.163,0-22.898,7.628-27.103,18.696h-12.29l-17.068-17.064l-4.063-4.062l-4.062,4.062l-23.291,23.291l-4.063,4.063l4.063,4.061
		l23.291,23.294l4.062,4.063l4.063-4.063l17.063-17.062h12.293c4.207,11.066,14.942,18.697,27.105,18.697
		c15.981,0,28.981-13.005,28.981-28.986c0-3.2-0.537-6.387-1.571-9.41l11.932-11.931l18.152,18.151v23.232v5.743h5.742h38.694h5.745
		v-5.743v-9.752h6.181c4.204,11.066,14.939,18.697,27.103,18.697c15.98,0,28.983-13.005,28.983-28.986
		c0-15.984-13.003-28.988-28.983-28.988c-12.16,0-22.896,7.632-27.103,18.696h-6.181v-8.363v-5.743h-5.745H323.68l-11.501-11.5
		l11.107-11.106c4.876,3.473,10.768,5.398,16.829,5.398c11.525,0,21.846-6.864,26.456-17.144h11.948l17.104,17.108l4.063,4.058
		l4.061-4.058l23.291-23.297l4.063-4.06l-4.063-4.06L403.748,298.983z M399.688,349.632l-18.79-18.79h-18.354
		c-2.681,9.875-11.705,17.142-22.428,17.142c-6.763,0-12.854-2.89-17.098-7.503l-18.96,18.959l17.188,17.242h38.971v14.109h16.233
		c2.115-10.66,11.514-18.695,22.795-18.695c12.835,0,23.238,10.409,23.238,23.241c0,12.835-10.403,23.241-23.238,23.241
		c-11.281,0-20.68-8.034-22.795-18.694h-16.233v15.495h-38.694v-25.61l-23.895-23.895l-18.731,18.73
		c1.677,3.214,2.628,6.863,2.628,10.733c0,12.835-10.406,23.241-23.238,23.241c-11.283,0-20.682-8.034-22.797-18.694h-18.979
		l-18.748,18.741l-23.292-23.29l23.292-23.294l18.753,18.751h18.974c2.115-10.66,11.517-18.695,22.797-18.695
		c5.657,0,10.842,2.026,14.87,5.385l18.041-18.041l-21.141-21.138l-11.029,11.035l-18.497-18.494h-23.481v14.655h-39.124v-39.126
		h39.124v15.378h22.976l19.002-19.001l23.292,23.297l-5.83,5.828l21.139,21.142l20.56-20.565c-0.848-2.412-1.312-5.002-1.312-7.706
		c0-12.836,10.409-23.241,23.241-23.241c11.82,0,21.572,8.828,23.042,20.248h17.825l18.705-18.703l23.294,23.293L399.688,349.632z"
		/>
	<path fill="#5E72E3" d="M44.436,519.551h17.231v9.454c-2.27,1.76-4.991,3.258-8.16,4.497c-3.166,1.238-6.323,1.854-9.475,1.854
		c-6.372,0-11.522-2.211-15.45-6.633c-3.933-4.422-5.899-11.055-5.899-19.898c0-8.2,1.94-14.381,5.82-18.548
		c3.879-4.167,9.109-6.25,15.678-6.25c4.335,0,7.956,1.058,10.853,3.173c2.895,2.12,4.868,5.006,5.92,8.668l14.94-2.795
		c-1.488-6.846-4.836-12.208-10.034-16.088c-5.205-3.88-12.426-5.819-21.679-5.819c-7.112,0-13.058,1.238-17.836,3.709
		c-6.266,3.221-11.028,7.845-14.281,13.877s-4.879,12.925-4.879,20.685c0,7.148,1.456,13.766,4.369,19.846
		c2.918,6.079,7.271,10.756,13.063,14.025c5.793,3.273,12.585,4.905,20.376,4.905c6.132,0,12.192-1.159,18.171-3.481
		s10.544-5.006,13.696-8.057v-29.678H44.436V519.551z"/>
	<polygon fill="#5E72E3" points="105.777,514.114 143.184,514.114 143.184,501.561 105.777,501.561 105.777,485.042 
		145.979,485.042 145.979,472.436 90.738,472.436 90.738,546.943 147.403,546.943 147.403,534.39 105.777,534.39 	"/>
	<polygon fill="#5E72E3" points="205.438,522.193 174.949,472.436 160.312,472.436 160.312,546.943 174.285,546.943 
		174.285,498.356 204.324,546.943 219.417,546.943 219.417,472.436 205.438,472.436 	"/>
	<polygon fill="#5E72E3" points="250.365,514.114 287.77,514.114 287.77,501.561 250.365,501.561 250.365,485.042 290.565,485.042 
		290.565,472.436 235.324,472.436 235.324,546.943 291.989,546.943 291.989,534.39 250.365,534.39 	"/>
	<path fill="#5E72E3" d="M350.307,505.802c-3.508-1.845-8.919-3.63-16.237-5.363c-7.317-1.727-11.926-3.385-13.823-4.979
		c-1.493-1.254-2.237-2.759-2.237-4.522c0-1.93,0.797-3.471,2.387-4.624c2.477-1.796,5.898-2.694,10.268-2.694
		c4.235,0,7.414,0.84,9.529,2.519c2.12,1.675,3.497,4.428,4.14,8.254l15.046-0.659c-0.239-6.845-2.721-12.313-7.445-16.417
		c-4.725-4.098-11.767-6.148-21.115-6.148c-5.729,0-10.613,0.866-14.663,2.593c-4.05,1.728-7.148,4.247-9.301,7.547
		c-2.152,3.306-3.227,6.851-3.227,10.646c0,5.899,2.285,10.896,6.861,14.993c3.253,2.918,8.907,5.373,16.976,7.371
		c6.266,1.558,10.278,2.642,12.043,3.253c2.572,0.914,4.379,1.993,5.41,3.226c1.036,1.238,1.552,2.737,1.552,4.496
		c0,2.748-1.228,5.145-3.683,7.196c-2.456,2.046-6.106,3.072-10.954,3.072c-4.576,0-8.206-1.153-10.9-3.455
		c-2.694-2.307-4.48-5.915-5.362-10.826l-14.637,1.425c0.983,8.333,3.997,14.679,9.046,19.032
		c5.049,4.353,12.282,6.531,21.699,6.531c6.474,0,11.879-0.909,16.216-2.721c4.337-1.812,7.69-4.581,10.061-8.308
		c2.37-3.73,3.561-7.727,3.561-11.995c0-4.708-0.993-8.663-2.976-11.867C356.557,510.176,353.813,507.652,350.307,505.802z"/>
	<polygon fill="#5E72E3" points="389.21,514.114 426.614,514.114 426.614,501.561 389.21,501.561 389.21,485.042 429.41,485.042 
		429.41,472.436 374.169,472.436 374.169,546.943 430.834,546.943 430.834,534.39 389.21,534.39 	"/>
	<polygon fill="#5E72E3" points="488.871,522.193 458.38,472.436 443.744,472.436 443.744,546.943 457.716,546.943 457.716,498.356 
		487.755,546.943 502.849,546.943 502.849,472.436 488.871,472.436 	"/>
	<path fill="#5E72E3" d="M553.418,506.998v12.554h17.225v9.454c-2.27,1.76-4.99,3.258-8.158,4.497
		c-3.168,1.238-6.324,1.854-9.477,1.854c-6.366,0-11.517-2.211-15.449-6.633c-3.928-4.422-5.895-11.055-5.895-19.898
		c0-8.2,1.94-14.381,5.82-18.548s9.104-6.25,15.678-6.25c4.337,0,7.951,1.058,10.848,3.173c2.896,2.12,4.873,5.006,5.921,8.668
		l14.944-2.795c-1.493-6.846-4.836-12.208-10.039-16.088c-5.198-3.88-12.426-5.819-21.674-5.819c-7.116,0-13.063,1.238-17.841,3.709
		c-6.267,3.221-11.028,7.845-14.281,13.877c-3.252,6.032-4.879,12.925-4.879,20.685c0,7.148,1.457,13.766,4.374,19.846
		c2.913,6.079,7.266,10.756,13.059,14.025c5.793,3.273,12.585,4.905,20.382,4.905c6.133,0,12.187-1.159,18.166-3.481
		c5.979-2.322,10.549-5.006,13.695-8.057v-29.678H553.418z"/>
</g>
</svg>
